<svg width="72" height="72" viewBox="0 0 72 72" fill="none" xmlns="http://www.w3.org/2000/svg">
<rect x="0.000488281" width="72" height="72" rx="21.8571" fill="white"/>
<path d="M31.1322 44.7371C28.0707 43.0275 26.0005 39.7555 26.0005 36C26.0005 30.4771 30.4776 26 36.0005 26C41.5233 26 46.0005 30.4771 46.0005 36C46.0005 39.7555 43.9303 43.0275 40.8688 44.7371L39.9729 42.9457C42.3793 41.5664 44.0005 38.9725 44.0005 36C44.0005 31.5817 40.4188 28 36.0005 28C31.5822 28 28.0005 31.5817 28.0005 36C28.0005 38.9725 29.6217 41.5664 32.0281 42.9457L31.1322 44.7371ZM32.9248 41.1528C31.1732 40.105 30.0005 38.1894 30.0005 36C30.0005 32.6863 32.6868 30 36.0005 30C39.3142 30 42.0005 32.6863 42.0005 36C42.0005 38.1894 40.8278 40.105 39.0762 41.1528L38.1777 39.3561C39.2749 38.6429 40.0005 37.4062 40.0005 36C40.0005 33.7909 38.2096 32 36.0005 32C33.7913 32 32.0005 33.7909 32.0005 36C32.0005 37.4062 32.7261 38.6429 33.8233 39.3561L32.9248 41.1528ZM36.0005 40L39.0005 46H33.0005L36.0005 40Z" fill="#399DD8"/>
</svg>
