<svg width="72" height="72" viewBox="0 0 72 72" fill="none" xmlns="http://www.w3.org/2000/svg">
<rect width="72.0007" height="72.0005" rx="21.8571" fill="white"/>
<path d="M43.0639 25.588C42.5215 26.9006 43.1437 28.4054 44.452 28.949C45.761 29.4926 47.2619 28.8686 47.8043 27.5567C48.347 26.2441 47.7251 24.739 46.4162 24.1963C45.1075 23.6533 43.6066 24.2752 43.0639 25.588Z" stroke="#399DD8" stroke-width="1.20001" stroke-miterlimit="10" stroke-linecap="round" stroke-linejoin="round"/>
<path d="M37.5175 42.8107L36.3352 38.6724L37.7326 38.8122L42.0518 30.4829L44.6366 31.5566L40.3529 41.9251C39.9581 42.8803 38.8669 43.3336 37.9147 42.9379L37.5175 42.8107Z" stroke="#399DD8" stroke-width="1.20001" stroke-miterlimit="10" stroke-linecap="round" stroke-linejoin="round"/>
<path d="M34.9193 41.9778L33.3752 38.3748L32.23 38.2602C31.72 38.2086 31.0384 38.4948 30.7174 38.8956L24 47.2831L25.7241 48.0004L32.5639 41.2221L34.9193 41.9778Z" stroke="#399DD8" stroke-width="1.20001" stroke-miterlimit="10" stroke-linecap="round" stroke-linejoin="round"/>
<path d="M33.3752 38.3749L37.5003 48.0005H39.0003L36.3348 38.6725L33.3752 38.3749Z" stroke="#399DD8" stroke-width="1.20001" stroke-miterlimit="10" stroke-linecap="round" stroke-linejoin="round"/>
<path d="M42.4353 36.8847L48.0007 34.4997V33.0002L43.5105 34.2831L42.4353 36.8847Z" stroke="#399DD8" stroke-width="1.20001" stroke-miterlimit="10" stroke-linecap="round" stroke-linejoin="round"/>
<path d="M31.8758 24.1906C33.7391 23.4193 36.1872 25.0588 37.3449 27.8533C38.5017 30.6473 37.9299 33.5381 36.0675 34.3088C34.2047 35.081 31.7561 33.4406 30.5981 30.647C29.4413 27.8533 30.0134 24.9625 31.8758 24.1906Z" stroke="#399DD8" stroke-width="1.20001" stroke-miterlimit="10" stroke-linecap="round" stroke-linejoin="round"/>
</svg>
