<svg width="72" height="72" viewBox="0 0 72 72" fill="none" xmlns="http://www.w3.org/2000/svg">
                            <rect width="72" height="72" rx="21.8571" fill="white" />
                            <g clip-path="url(#clip0_72_89)">
                                <path d="M35.624 27.8867H36.3763V34.119H35.624V27.8867Z" fill="#399DD8" />
                                <path
                                    d="M36 28.7158L33.6128 26.3582L36 24L38.3873 26.3582L36 28.7158ZM34.6832 26.3582L36 27.6587L37.3169 26.3582L36 25.0573L34.6832 26.3582Z"
                                    fill="#399DD8" />
                                <path
                                    d="M35.9998 32.2435L32.4551 28.7423L32.9835 28.2072L35.9998 31.1862L39.0163 28.2072L39.5447 28.7423L35.9998 32.2435ZM29.0717 31.6167L34.5369 34.7325L34.1642 35.386L28.6995 32.2703L29.0717 31.6167Z"
                                    fill="#399DD8" />
                                <path
                                    d="M26.3546 33.2225L25.4797 29.9977L28.7368 29.1354L29.6119 32.3602L26.3546 33.2225ZM26.4037 30.5311L26.8847 32.3039L28.6877 31.8269L28.2067 30.0539L26.4037 30.5311Z"
                                    fill="#399DD8" />
                                <path
                                    d="M27.8572 35.4071L27.6648 34.6798L31.7806 33.5904L30.6787 29.5297L31.4047 29.3326L32.705 34.124L27.8572 35.4071ZM34.1645 36.614L34.537 37.2675L29.072 40.3833L28.6994 39.7299L34.1645 36.614Z"
                                    fill="#399DD8" />
                                <path
                                    d="M28.7362 42.8644L25.4797 42.0028L26.3544 38.7778L29.6115 39.64L28.7362 42.8644ZM26.4037 41.469L28.206 41.9462L28.6869 40.1734L26.8845 39.6964L26.4037 41.469Z"
                                    fill="#399DD8" />
                                <path
                                    d="M31.4047 42.6678L30.6787 42.4707L31.7806 38.4098L27.6648 37.3206L27.8572 36.5935L32.7048 37.876L31.4047 42.6678ZM35.6244 37.8816H36.3766V44.1136H35.6244V37.8816Z"
                                    fill="#399DD8" />
                                <path
                                    d="M36.0004 48L33.6125 45.642L36.0002 43.2848L38.3872 45.6428L36.0004 48ZM34.6832 45.642L36.0004 46.9429L37.3168 45.6426L36 44.3417L34.6832 45.642Z"
                                    fill="#399DD8" />
                                <path
                                    d="M39.0165 43.7935L35.9998 40.8145L32.9841 43.7935L32.4553 43.2583L35.9998 39.757L39.5449 43.2583L39.0165 43.7935ZM37.8364 36.6139L43.3005 39.7294L42.9279 40.3828L37.4638 37.2673L37.8364 36.6139Z"
                                    fill="#399DD8" />
                                <path
                                    d="M43.2629 42.8649L42.3882 39.6401L45.6452 38.7783L46.5203 42.0024L43.2629 42.8649ZM43.3124 40.1737L43.7933 41.9463L45.5961 41.4691L45.1152 39.6967L43.3124 40.1737Z"
                                    fill="#399DD8" />
                                <path
                                    d="M40.5957 42.6676L39.2954 37.8759L44.143 36.5934L44.3356 37.3205L40.2196 38.4097L41.3219 42.4705L40.5957 42.6676ZM42.9271 31.6152L43.2998 32.2685L37.8368 35.386L37.4639 34.7326L42.9271 31.6152Z"
                                    fill="#399DD8" />
                                <path
                                    d="M45.6461 33.2228L42.3887 32.3607L43.2639 29.1359L46.5204 29.9976L45.6461 33.2228ZM43.3129 31.8274L45.1157 32.3044L45.5962 30.5314L43.794 30.0544L43.3129 31.8274Z"
                                    fill="#399DD8" />
                                <path
                                    d="M44.1428 35.4071L39.2952 34.1246L40.5955 29.3326L41.3217 29.5297L40.2194 33.591L44.3354 34.6798L44.1428 35.4071ZM37.1932 37.8888H34.9724L33.8579 35.9825L34.9724 34.076H37.1933L38.308 35.9825L37.1932 37.8888ZM35.4038 37.1368H36.7615L37.4367 35.9827L36.7615 34.8285H35.4038L34.729 35.9827L35.4038 37.1368Z"
                                    fill="#399DD8" />
                            </g>
                            <defs>
                                <clipPath id="clip0_72_89">
                                    <rect width="24" height="24" fill="white" transform="translate(24 24)" />
                                </clipPath>
                            </defs>
                        </svg>