<svg width="72" height="72" viewBox="0 0 72 72" fill="none" xmlns="http://www.w3.org/2000/svg">
<rect y="0.000488281" width="72" height="72" rx="21.8571" fill="white"/>
<path d="M28 27.0005H44C44.5523 27.0005 45 27.4482 45 28.0005V44.0005C45 44.5528 44.5523 45.0005 44 45.0005H28C27.4477 45.0005 27 44.5528 27 44.0005V28.0005C27 27.4482 27.4477 27.0005 28 27.0005ZM29 29.0005V43.0005H43V29.0005H29ZM33 31.0005H36.5C38.433 31.0005 40 32.5675 40 34.5005C40 36.4335 38.433 38.0005 36.5 38.0005H35V41.0005H33V31.0005ZM35 33.0005V36.0005H36.5C37.3284 36.0005 38 35.3289 38 34.5005C38 33.6721 37.3284 33.0005 36.5 33.0005H35Z" fill="#399DD8"/>
</svg>
