<svg width="72" height="72" viewBox="0 0 72 72" fill="none" xmlns="http://www.w3.org/2000/svg">
<rect y="0.000488281" width="72" height="72" rx="21.8571" fill="white"/>
<path d="M36 25.0005L39 30.0005H37V37.3815L40 35.8825L39.999 35.0005H39V31.0005H43V35.0005H41.999L42 37.1185L37 39.6185L37.0009 41.1715C38.1656 41.5836 39 42.6946 39 44.0005C39 45.6574 37.6569 47.0005 36 47.0005C34.3431 47.0005 33 45.6574 33 44.0005C33 42.8135 33.6893 41.7876 34.6895 41.3011L30 38.0005L29.9989 35.7323C29.4017 35.3863 29 34.7403 29 34.0005C29 32.8959 29.8954 32.0005 31 32.0005C32.1046 32.0005 33 32.8959 33 34.0005C33 34.7408 32.5978 35.3871 32.0001 35.7329L32 37.0005L35 39.0865V30.0005H33L36 25.0005ZM36 43.0005C35.4477 43.0005 35 43.4482 35 44.0005C35 44.5528 35.4477 45.0005 36 45.0005C36.5523 45.0005 37 44.5528 37 44.0005C37 43.4482 36.5523 43.0005 36 43.0005Z" fill="#399DD8"/>
</svg>
